<?xml version="1.0" standalone="no"?>
<!DOCTYPE svg PUBLIC "-//W3C//DTD SVG 20010904//EN"
 "http://www.w3.org/TR/2001/REC-SVG-20010904/DTD/svg10.dtd">
<svg version="1.0" xmlns="http://www.w3.org/2000/svg"
 width="1250.000000pt" height="1250.000000pt" viewBox="0 0 1250.000000 1250.000000"
 preserveAspectRatio="xMidYMid meet">
<metadata>
Created by potrace 1.14, written by Peter Selinger 2001-2017
</metadata>
<g transform="translate(0.000000,1250.000000) scale(0.100000,-0.100000)"
fill="#000000" stroke="none">
<path d="M8064 11519 c-4 -7 -32 -12 -124 -24 -95 -13 -269 -46 -362 -70 -756
-196 -1256 -547 -1535 -1075 -98 -186 -186 -455 -217 -666 -3 -22 -8 -55 -11
-74 -22 -144 -30 -277 -30 -515 0 -121 4 -258 8 -305 17 -193 19 -230 9 -230
-5 0 -25 11 -44 24 -191 129 -597 313 -798 361 -111 27 -244 55 -280 60 -25 3
-56 8 -70 10 -97 16 -413 23 -525 11 -95 -10 -143 -17 -190 -26 -27 -5 -66
-12 -85 -15 -19 -3 -43 -8 -52 -11 -9 -3 -25 -7 -37 -9 -99 -19 -320 -92 -467
-156 -409 -175 -723 -409 -990 -739 -61 -74 -194 -264 -194 -276 0 -3 -8 -18
-19 -32 -18 -26 -112 -209 -144 -282 -9 -19 -27 -61 -41 -93 -14 -32 -26 -60
-26 -64 0 -4 -11 -34 -24 -67 -77 -192 -169 -573 -191 -791 -4 -33 -8 -71 -11
-85 -23 -144 -23 -700 1 -860 2 -14 6 -55 10 -91 3 -36 7 -76 10 -90 2 -13 9
-60 15 -104 6 -44 23 -141 36 -215 14 -74 27 -146 30 -160 5 -30 28 -133 55
-250 62 -264 223 -779 288 -925 5 -11 29 -69 54 -130 223 -544 554 -1101 896
-1510 97 -116 321 -340 436 -436 293 -244 603 -423 910 -524 171 -56 207 -65
310 -80 17 -3 39 -7 51 -9 52 -11 189 -20 294 -20 176 1 301 16 500 62 47 11
105 24 130 28 25 4 47 8 50 9 7 2 106 14 175 22 83 9 374 9 465 0 81 -8 168
-22 240 -37 25 -5 56 -12 70 -15 14 -2 43 -9 65 -15 221 -55 541 -70 765 -34
283 45 555 145 835 307 64 37 259 165 295 194 240 191 370 314 560 528 346
392 754 1095 977 1685 94 246 233 687 259 820 3 14 14 61 25 105 21 81 82 393
94 475 3 25 8 52 10 60 2 8 7 40 10 70 3 30 8 62 10 70 2 8 7 45 10 82 3 37 8
75 10 86 26 138 27 831 0 970 -1 9 -6 40 -9 67 -31 239 -127 616 -196 770 -5
11 -30 70 -56 130 -47 112 -117 250 -170 339 -60 101 -207 313 -234 336 -3 3
-18 21 -34 40 -72 89 -229 240 -363 350 -32 26 -182 130 -187 130 -3 0 -25 13
-49 30 -177 119 -611 293 -816 326 -14 2 -46 9 -71 14 -25 5 -76 14 -115 20
-38 6 -83 13 -98 16 l-28 6 27 36 c106 138 224 346 274 482 59 158 110 334
126 434 3 21 8 48 10 60 3 11 7 39 10 61 3 22 7 51 10 65 19 114 25 514 10
695 -5 55 -10 115 -11 134 -5 63 -27 196 -42 255 -30 121 -91 203 -188 253
-45 24 -62 26 -173 28 -68 0 -125 -2 -128 -6z m-82 -726 c8 -85 6 -406 -3
-478 -4 -38 -11 -92 -14 -119 -3 -26 -15 -91 -26 -145 -112 -527 -417 -864
-1024 -1128 -93 -40 -347 -123 -425 -138 -38 -7 -63 27 -71 96 -7 65 -4 479 4
534 3 17 8 55 12 85 3 30 13 85 21 122 7 37 16 81 19 97 18 102 118 338 187
439 77 114 201 242 316 324 37 26 73 53 81 60 40 34 315 160 436 201 199 66
438 120 466 106 11 -6 18 -25 21 -56z"/>
<path d="M1500 10850 c-19 -4 -51 -10 -70 -14 -284 -56 -599 -178 -795 -309
-310 -207 -498 -492 -574 -867 -25 -124 -30 -155 -46 -325 -14 -138 -3 -491
16 -526 16 -30 57 -31 152 -4 498 142 875 370 1104 665 154 199 261 489 289
785 3 33 7 71 10 85 6 34 5 382 -1 449 -6 71 -14 76 -85 61z"/>
</g>
</svg>
